<svg><defs>
<svg id="source-repository" viewBox="0 0 24 24"><path d="M6,2H18A2,2 0 0,1 20,4V20A2,2 0 0,1 18,22H6A2,2 0 0,1 4,20V4A2,2 0 0,1 6,2M12.75,13.5C15.5,13.5 16.24,11.47 16.43,10.4C17.34,10.11 18,9.26 18,8.25C18,7 17,6 15.75,6C14.5,6 13.5,7 13.5,8.25C13.5,9.19 14.07,10 14.89,10.33C14.67,11 14,12 12,12C10.62,12 9.66,12.35 9,12.84V8.87C9.87,8.56 10.5,7.73 10.5,6.75C10.5,5.5 9.5,4.5 8.25,4.5C7,4.5 6,5.5 6,6.75C6,7.73 6.63,8.56 7.5,8.87V15.13C6.63,15.44 6,16.27 6,17.25C6,18.5 7,19.5 8.25,19.5C9.5,19.5 10.5,18.5 10.5,17.25C10.5,16.32 9.94,15.5 9.13,15.18C9.41,14.5 10.23,13.5 12.75,13.5M8.25,16.5A0.75,0.75 0 0,1 9,17.25A0.75,0.75 0 0,1 8.25,18A0.75,0.75 0 0,1 7.5,17.25A0.75,0.75 0 0,1 8.25,16.5M8.25,6A0.75,0.75 0 0,1 9,6.75A0.75,0.75 0 0,1 8.25,7.5A0.75,0.75 0 0,1 7.5,6.75A0.75,0.75 0 0,1 8.25,6M15.75,7.5A0.75,0.75 0 0,1 16.5,8.25A0.75,0.75 0 0,1 15.75,9A0.75,0.75 0 0,1 15,8.25A0.75,0.75 0 0,1 15.75,7.5Z"/></svg>
<svg id="source-merge" viewBox="0 0 24 24"><path d="M7,3A3,3 0 0,1 10,6C10,7.29 9.19,8.39 8.04,8.81C8.58,13.81 13.08,14.77 15.19,14.96C15.61,13.81 16.71,13 18,13A3,3 0 0,1 21,16A3,3 0 0,1 18,19C16.69,19 15.57,18.16 15.16,17C10.91,16.8 9.44,15.19 8,13.39V15.17C9.17,15.58 10,16.69 10,18A3,3 0 0,1 7,21A3,3 0 0,1 4,18C4,16.69 4.83,15.58 6,15.17V8.83C4.83,8.42 4,7.31 4,6A3,3 0 0,1 7,3M7,5A1,1 0 0,0 6,6A1,1 0 0,0 7,7A1,1 0 0,0 8,6A1,1 0 0,0 7,5M7,17A1,1 0 0,0 6,18A1,1 0 0,0 7,19A1,1 0 0,0 8,18A1,1 0 0,0 7,17M18,15A1,1 0 0,0 17,16A1,1 0 0,0 18,17A1,1 0 0,0 19,16A1,1 0 0,0 18,15Z"/></svg>
<svg id="format-letter-case" viewBox="0 0 24 24"><path d="M20.06,18C20,17.83 19.91,17.54 19.86,17.11C19.19,17.81 18.38,18.16 17.45,18.16C16.62,18.16 15.93,17.92 15.4,17.45C14.87,17 14.6,16.39 14.6,15.66C14.6,14.78 14.93,14.1 15.6,13.61C16.27,13.12 17.21,12.88 18.43,12.88H19.83V12.24C19.83,11.75 19.68,11.36 19.38,11.07C19.08,10.78 18.63,10.64 18.05,10.64C17.53,10.64 17.1,10.76 16.75,11C16.4,11.25 16.23,11.54 16.23,11.89H14.77C14.77,11.46 14.92,11.05 15.22,10.65C15.5,10.25 15.93,9.94 16.44,9.71C16.95,9.5 17.5,9.36 18.13,9.36C19.11,9.36 19.87,9.6 20.42,10.09C20.97,10.58 21.26,11.25 21.28,12.11V16C21.28,16.8 21.38,17.42 21.58,17.88V18H20.06M17.66,16.88C18.11,16.88 18.54,16.77 18.95,16.56C19.35,16.35 19.65,16.07 19.83,15.73V14.16H18.7C16.93,14.16 16.04,14.63 16.04,15.57C16.04,16 16.19,16.3 16.5,16.53C16.8,16.76 17.18,16.88 17.66,16.88M5.46,13.71H9.53L7.5,8.29L5.46,13.71M6.64,6H8.36L13.07,18H11.14L10.17,15.43H4.82L3.86,18H1.93L6.64,6Z"/></svg>
<svg id="source-branch" viewBox="0 0 24 24"><path d="M13,14C9.64,14 8.54,15.35 8.18,16.24C9.25,16.7 10,17.76 10,19A3,3 0 0,1 7,22A3,3 0 0,1 4,19C4,17.69 4.83,16.58 6,16.17V7.83C4.83,7.42 4,6.31 4,5A3,3 0 0,1 7,2A3,3 0 0,1 10,5C10,6.31 9.17,7.42 8,7.83V13.12C8.88,12.47 10.16,12 12,12C14.67,12 15.56,10.66 15.85,9.77C14.77,9.32 14,8.25 14,7A3,3 0 0,1 17,4A3,3 0 0,1 20,7C20,8.34 19.12,9.5 17.91,9.86C17.65,11.29 16.68,14 13,14M7,18A1,1 0 0,0 6,19A1,1 0 0,0 7,20A1,1 0 0,0 8,19A1,1 0 0,0 7,18M7,4A1,1 0 0,0 6,5A1,1 0 0,0 7,6A1,1 0 0,0 8,5A1,1 0 0,0 7,4M17,6A1,1 0 0,0 16,7A1,1 0 0,0 17,8A1,1 0 0,0 18,7A1,1 0 0,0 17,6Z"/></svg>
<svg id="regex" viewBox="0 0 24 24"><path d="M16,16.92C15.67,16.97 15.34,17 15,17C14.66,17 14.33,16.97 14,16.92V13.41L11.5,15.89C11,15.5 10.5,15 10.11,14.5L12.59,12H9.08C9.03,11.67 9,11.34 9,11C9,10.66 9.03,10.33 9.08,10H12.59L10.11,7.5C10.3,7.25 10.5,7 10.76,6.76V6.76C11,6.5 11.25,6.3 11.5,6.11L14,8.59V5.08C14.33,5.03 14.66,5 15,5C15.34,5 15.67,5.03 16,5.08V8.59L18.5,6.11C19,6.5 19.5,7 19.89,7.5L17.41,10H20.92C20.97,10.33 21,10.66 21,11C21,11.34 20.97,11.67 20.92,12H17.41L19.89,14.5C19.7,14.75 19.5,15 19.24,15.24V15.24C19,15.5 18.75,15.7 18.5,15.89L16,13.41V16.92H16V16.92M5,19A2,2 0 0,1 7,17A2,2 0 0,1 9,19A2,2 0 0,1 7,21A2,2 0 0,1 5,19H5Z"/></svg>
<svg id="google" viewBox="0 0 24 24"><path d="M21.35,11.1H12.18V13.83H18.69C18.36,17.64 15.19,19.27 12.19,19.27C8.36,19.27 5,16.25 5,12C5,7.9 8.2,4.73 12.2,4.73C15.29,4.73 17.1,6.7 17.1,6.7L19,4.72C19,4.72 16.56,2 12.1,2C6.42,2 2.03,6.8 2.03,12C2.03,17.05 6.16,22 12.25,22C17.6,22 21.5,18.33 21.5,12.91C21.5,11.76 21.35,11.1 21.35,11.1V11.1Z"/></svg>
<svg id="github" viewBox="0 0 24 24"><path d="M12,2A10,10 0 0,0 2,12C2,16.42 4.87,20.17 8.84,21.5C9.34,21.58 9.5,21.27 9.5,21C9.5,20.77 9.5,20.14 9.5,19.31C6.73,19.91 6.14,17.97 6.14,17.97C5.68,16.81 5.03,16.5 5.03,16.5C4.12,15.88 5.1,15.9 5.1,15.9C6.1,15.97 6.63,16.93 6.63,16.93C7.5,18.45 8.97,18 9.54,17.76C9.63,17.11 9.89,16.67 10.17,16.42C7.95,16.17 5.62,15.31 5.62,11.5C5.62,10.39 6,9.5 6.65,8.79C6.55,8.54 6.2,7.5 6.75,6.15C6.75,6.15 7.59,5.88 9.5,7.17C10.29,6.95 11.15,6.84 12,6.84C12.85,6.84 13.71,6.95 14.5,7.17C16.41,5.88 17.25,6.15 17.25,6.15C17.8,7.5 17.45,8.54 17.35,8.79C18,9.5 18.38,10.39 18.38,11.5C18.38,15.32 16.04,16.16 13.81,16.41C14.17,16.72 14.5,17.33 14.5,18.26C14.5,19.6 14.5,20.68 14.5,21C14.5,21.27 14.66,21.59 15.17,21.5C19.14,20.16 22,16.42 22,12A10,10 0 0,0 12,2Z"/></svg>
<svg id="gitlab" viewBox="0 0 24 24"><path d="M21.94 13.11L20.89 9.89C20.89 9.86 20.88 9.83 20.87 9.8L18.76 3.32C18.65 3 18.33 2.75 17.96 2.75C17.6 2.75 17.28 3 17.17 3.33L15.17 9.5H8.84L6.83 3.33C6.72 3 6.4 2.75 6.04 2.75H6.04C5.67 2.75 5.35 3 5.24 3.33L3.13 9.82C3.13 9.82 3.13 9.83 3.13 9.83L2.06 13.11C1.9 13.61 2.07 14.15 2.5 14.45L11.72 21.16C11.89 21.28 12.11 21.28 12.28 21.15L21.5 14.45C21.93 14.15 22.1 13.61 21.94 13.11M8.15 10.45L10.72 18.36L4.55 10.45M13.28 18.37L15.75 10.78L15.85 10.45H19.46L13.87 17.61M17.97 3.94L19.78 9.5H16.16M14.86 10.45L13.07 15.96L12 19.24L9.14 10.45M6.03 3.94L7.84 9.5H4.23M3.05 13.69C2.96 13.62 2.92 13.5 2.96 13.4L3.75 10.97L9.57 18.42M20.95 13.69L14.44 18.42L14.46 18.39L20.25 10.97L21.04 13.4C21.08 13.5 21.04 13.62 20.95 13.69"/></svg>
<svg id="bitbucket" viewBox="0 0 24 24"><path d="M2.65 3C2.3 3 2 3.3 2 3.65C2 3.69 2 3.73 2 3.77L4.73 20.27C4.8 20.69 5.16 21 5.58 21H18.63C18.94 21 19.22 20.78 19.27 20.46L22 3.77C22.05 3.42 21.81 3.09 21.46 3.04C21.43 3.03 21.39 3.03 21.35 3.03L2.65 3M14.1 14.95H9.94L8.81 9.07H15.11L14.1 14.95Z"/></svg>
<svg id="microsoft-visual-studio-code" viewBox="0 0 24 24"><path d="M17,16.47V7.39L11,11.93M2.22,9.19C1.92,8.87 1.91,8.37 2.2,8.04L3.4,6.93C3.6,6.75 4.09,6.67 4.45,6.93L7.87,9.54L15.8,2.29C16.12,1.97 16.67,1.84 17.3,2.17L21.3,4.08C21.66,4.29 22,4.62 22,5.23V18.73C22,19.13 21.71,19.56 21.4,19.73L17,21.83C16.68,21.96 16.08,21.84 15.87,21.63L7.85,14.33L4.45,16.93C4.07,17.19 3.6,17.12 3.4,16.93L2.2,15.83C1.88,15.5 1.92,14.96 2.25,14.63L5.25,11.93"/></svg>
<svg id="file-tree" viewBox="0 0 24 24"><path d="M3,3H9V7H3V3M15,10H21V14H15V10M15,17H21V21H15V17M13,13H7V18H13V20H7L5,20V9H7V11H13V13Z"/></svg>
<svg id="tray" viewBox="0 0 24 24"><path d="M2 12H4V17H20V12H22V17A2 2 0 0 1 20 19H4A2 2 0 0 1 2 17Z"/></svg>
<svg id="tray-minus" viewBox="0 0 24 24"><path d="M16 10H8V8H16M2 17A2 2 0 0 0 4 19H20A2 2 0 0 0 22 17V12H20V17H4V12H2Z"/></svg>
<svg id="tray-plus" viewBox="0 0 24 24"><path d="M2 12H4V17H20V12H22V17A2 2 0 0 1 20 19H4A2 2 0 0 1 2 17M11 5H13V8H16V10H13V13H11V10H8V8H11Z"/></svg>
<svg id="tray-remove" viewBox="0 0 24 24"><path d="M2 17A2 2 0 0 0 4 19H20A2 2 0 0 0 22 17V12H20V17H4V12H2M14.12 5.46L15.54 6.88L13.41 9L15.54 11.12L14.12 12.54L12 10.41L9.88 12.54L8.46 11.12L10.59 9L8.46 6.88L9.88 5.46L12 7.59Z"/></svg>
<svg id="tray-arrow-down" viewBox="0 0 24 24"><path d="M2 12H4V17H20V12H22V17C22 18.11 21.11 19 20 19H4C2.9 19 2 18.11 2 17V12M12 15L17.55 9.54L16.13 8.13L13 11.25V2H11V11.25L7.88 8.13L6.46 9.55L12 15Z"/></svg>
<svg id="tray-arrow-up" viewBox="0 0 24 24"><path d="M2 12H4V17H20V12H22V17C22 18.11 21.11 19 20 19H4C2.9 19 2 18.11 2 17V12M12 2L6.46 7.46L7.88 8.88L11 5.75V15H13V5.75L16.13 8.88L17.55 7.45L12 2Z"/></svg>
<svg id="glint" viewBox="0 0 24 24"><path d="M0,9 L6,3 L18,3 L24,9 L12,21 z"/></svg>
<svg id="glint-outline" viewBox="0 0 24 24"><path d="M0,9 L6,3 L18,3 L24,9 L12,21 L0,9 L3,9 L12,18 L21,9 L17.12132,5.12132 L6.87868,5.12132 L3,9 z"/></svg>
</defs></svg>
