<svg><defs>
<svg id="source-repository" viewBox="0 0 24 24"><path d="M6,2H18A2,2 0 0,1 20,4V20A2,2 0 0,1 18,22H6A2,2 0 0,1 4,20V4A2,2 0 0,1 6,2M12.75,13.5C15.5,13.5 16.24,11.47 16.43,10.4C17.34,10.11 18,9.26 18,8.25C18,7 17,6 15.75,6C14.5,6 13.5,7 13.5,8.25C13.5,9.19 14.07,10 14.89,10.33C14.67,11 14,12 12,12C10.62,12 9.66,12.35 9,12.84V8.87C9.87,8.56 10.5,7.73 10.5,6.75C10.5,5.5 9.5,4.5 8.25,4.5C7,4.5 6,5.5 6,6.75C6,7.73 6.63,8.56 7.5,8.87V15.13C6.63,15.44 6,16.27 6,17.25C6,18.5 7,19.5 8.25,19.5C9.5,19.5 10.5,18.5 10.5,17.25C10.5,16.32 9.94,15.5 9.13,15.18C9.41,14.5 10.23,13.5 12.75,13.5M8.25,16.5A0.75,0.75 0 0,1 9,17.25A0.75,0.75 0 0,1 8.25,18A0.75,0.75 0 0,1 7.5,17.25A0.75,0.75 0 0,1 8.25,16.5M8.25,6A0.75,0.75 0 0,1 9,6.75A0.75,0.75 0 0,1 8.25,7.5A0.75,0.75 0 0,1 7.5,6.75A0.75,0.75 0 0,1 8.25,6M15.75,7.5A0.75,0.75 0 0,1 16.5,8.25A0.75,0.75 0 0,1 15.75,9A0.75,0.75 0 0,1 15,8.25A0.75,0.75 0 0,1 15.75,7.5Z"/></svg>
<svg id="source-merge" viewBox="0 0 24 24"><path d="M7,3A3,3 0 0,1 10,6C10,7.29 9.19,8.39 8.04,8.81C8.58,13.81 13.08,14.77 15.19,14.96C15.61,13.81 16.71,13 18,13A3,3 0 0,1 21,16A3,3 0 0,1 18,19C16.69,19 15.57,18.16 15.16,17C10.91,16.8 9.44,15.19 8,13.39V15.17C9.17,15.58 10,16.69 10,18A3,3 0 0,1 7,21A3,3 0 0,1 4,18C4,16.69 4.83,15.58 6,15.17V8.83C4.83,8.42 4,7.31 4,6A3,3 0 0,1 7,3M7,5A1,1 0 0,0 6,6A1,1 0 0,0 7,7A1,1 0 0,0 8,6A1,1 0 0,0 7,5M7,17A1,1 0 0,0 6,18A1,1 0 0,0 7,19A1,1 0 0,0 8,18A1,1 0 0,0 7,17M18,15A1,1 0 0,0 17,16A1,1 0 0,0 18,17A1,1 0 0,0 19,16A1,1 0 0,0 18,15Z"/></svg>
<svg id="format-letter-case" viewBox="0 0 24 24"><path d="M20.06,18C20,17.83 19.91,17.54 19.86,17.11C19.19,17.81 18.38,18.16 17.45,18.16C16.62,18.16 15.93,17.92 15.4,17.45C14.87,17 14.6,16.39 14.6,15.66C14.6,14.78 14.93,14.1 15.6,13.61C16.27,13.12 17.21,12.88 18.43,12.88H19.83V12.24C19.83,11.75 19.68,11.36 19.38,11.07C19.08,10.78 18.63,10.64 18.05,10.64C17.53,10.64 17.1,10.76 16.75,11C16.4,11.25 16.23,11.54 16.23,11.89H14.77C14.77,11.46 14.92,11.05 15.22,10.65C15.5,10.25 15.93,9.94 16.44,9.71C16.95,9.5 17.5,9.36 18.13,9.36C19.11,9.36 19.87,9.6 20.42,10.09C20.97,10.58 21.26,11.25 21.28,12.11V16C21.28,16.8 21.38,17.42 21.58,17.88V18H20.06M17.66,16.88C18.11,16.88 18.54,16.77 18.95,16.56C19.35,16.35 19.65,16.07 19.83,15.73V14.16H18.7C16.93,14.16 16.04,14.63 16.04,15.57C16.04,16 16.19,16.3 16.5,16.53C16.8,16.76 17.18,16.88 17.66,16.88M5.46,13.71H9.53L7.5,8.29L5.46,13.71M6.64,6H8.36L13.07,18H11.14L10.17,15.43H4.82L3.86,18H1.93L6.64,6Z"/></svg>
<svg id="source-branch" viewBox="0 0 24 24"><path d="M13,14C9.64,14 8.54,15.35 8.18,16.24C9.25,16.7 10,17.76 10,19A3,3 0 0,1 7,22A3,3 0 0,1 4,19C4,17.69 4.83,16.58 6,16.17V7.83C4.83,7.42 4,6.31 4,5A3,3 0 0,1 7,2A3,3 0 0,1 10,5C10,6.31 9.17,7.42 8,7.83V13.12C8.88,12.47 10.16,12 12,12C14.67,12 15.56,10.66 15.85,9.77C14.77,9.32 14,8.25 14,7A3,3 0 0,1 17,4A3,3 0 0,1 20,7C20,8.34 19.12,9.5 17.91,9.86C17.65,11.29 16.68,14 13,14M7,18A1,1 0 0,0 6,19A1,1 0 0,0 7,20A1,1 0 0,0 8,19A1,1 0 0,0 7,18M7,4A1,1 0 0,0 6,5A1,1 0 0,0 7,6A1,1 0 0,0 8,5A1,1 0 0,0 7,4M17,6A1,1 0 0,0 16,7A1,1 0 0,0 17,8A1,1 0 0,0 18,7A1,1 0 0,0 17,6Z"/></svg>
<svg id="regex" viewBox="0 0 24 24"><path d="M16,16.92C15.67,16.97 15.34,17 15,17C14.66,17 14.33,16.97 14,16.92V13.41L11.5,15.89C11,15.5 10.5,15 10.11,14.5L12.59,12H9.08C9.03,11.67 9,11.34 9,11C9,10.66 9.03,10.33 9.08,10H12.59L10.11,7.5C10.3,7.25 10.5,7 10.76,6.76V6.76C11,6.5 11.25,6.3 11.5,6.11L14,8.59V5.08C14.33,5.03 14.66,5 15,5C15.34,5 15.67,5.03 16,5.08V8.59L18.5,6.11C19,6.5 19.5,7 19.89,7.5L17.41,10H20.92C20.97,10.33 21,10.66 21,11C21,11.34 20.97,11.67 20.92,12H17.41L19.89,14.5C19.7,14.75 19.5,15 19.24,15.24V15.24C19,15.5 18.75,15.7 18.5,15.89L16,13.41V16.92H16V16.92M5,19A2,2 0 0,1 7,17A2,2 0 0,1 9,19A2,2 0 0,1 7,21A2,2 0 0,1 5,19H5Z"/></svg>
</defs></svg>